# xmcd CD database file
#
# Track frame offsets:
#	150
#	47137
#	77925
#	128210
#	148982
#
# Disc length: 2453 seconds
#
# Revision: 0
# Processed by: cddbd v1.4PL0 Copyright (c) Steve Scherf et al.
# Submitted via: CDex 1.50beta8
#
DISCID=48099305
DTITLE=V.S.O.P. The Quintet - Five Stars (disc2)
DYEAR=1979
DGENRE=Jazz
TTITLE0=Skagly
TTITLE1=Finger Painting
TTITLE2=Mutants on the Beach
TTITLE3=Circe
TTITLE4=Stella by Starlight - On Green Dolphin Street
EXTD=YEAR: 1979
EXTT0=
EXTT1=
EXTT2=
EXTT3=
EXTT4=
PLAYORDER=
